<?xml version="1.0" standalone="no"?>
<!DOCTYPE svg PUBLIC "-//W3C//DTD SVG 1.1//EN" "http://www.w3.org/Graphics/SVG/1.1/DTD/svg11.dtd">
<svg width="80mm" height="148mm" viewBox="-40 -74 80 148" xmlns="http://www.w3.org/2000/svg" version="1.1">
<title>OpenSCAD Model</title>
<path d="
M 30.7953,73.4452 L 31.4865,73.3481 L 32.1692,73.203 L 32.8402,73.0106 L 33.4961,72.7718 L 34.1337,72.4879
 L 34.75,72.1602 L 35.3419,71.7904 L 35.9066,71.3801 L 36.4413,70.9314 L 36.9434,70.4466 L 37.4104,69.9279
 L 37.8402,69.3779 L 38.2305,68.7992 L 38.5795,68.1947 L 38.8855,67.5674 L 39.1469,66.9202 L 39.3626,66.2564
 L 39.5315,65.5791 L 39.6527,64.8917 L 39.7256,64.1976 L 39.75,63.5 L 39.75,-63.5 L 39.7256,-64.1976
 L 39.6527,-64.8917 L 39.5315,-65.5791 L 39.3626,-66.2564 L 39.1469,-66.9202 L 38.8855,-67.5674 L 38.5795,-68.1947
 L 38.2305,-68.7992 L 37.8402,-69.3779 L 37.4104,-69.9279 L 36.9434,-70.4466 L 36.4413,-70.9314 L 35.9066,-71.3801
 L 35.3419,-71.7904 L 34.75,-72.1602 L 34.1337,-72.4879 L 33.4961,-72.7718 L 32.8402,-73.0106 L 32.1692,-73.203
 L 31.4865,-73.3481 L 30.7953,-73.4452 L 30.099,-73.4939 L -30.099,-73.4939 L -30.7953,-73.4452 L -31.4865,-73.3481
 L -32.1692,-73.203 L -32.8402,-73.0106 L -33.4961,-72.7718 L -34.1337,-72.4879 L -34.75,-72.1602 L -35.3419,-71.7904
 L -35.9066,-71.3801 L -36.4413,-70.9314 L -36.9434,-70.4466 L -37.4104,-69.9279 L -37.8402,-69.3779 L -38.2305,-68.7992
 L -38.5795,-68.1947 L -38.8855,-67.5674 L -39.1469,-66.9202 L -39.3626,-66.2564 L -39.5315,-65.5791 L -39.6527,-64.8917
 L -39.7256,-64.1976 L -39.75,-63.5 L -39.75,63.5 L -39.7256,64.1976 L -39.6527,64.8917 L -39.5315,65.5791
 L -39.3626,66.2564 L -39.1469,66.9202 L -38.8855,67.5674 L -38.5795,68.1947 L -38.2305,68.7992 L -37.8402,69.3779
 L -37.4104,69.9279 L -36.9434,70.4466 L -36.4413,70.9314 L -35.9066,71.3801 L -35.3419,71.7904 L -34.75,72.1602
 L -34.1337,72.4879 L -33.4961,72.7718 L -32.8402,73.0106 L -32.1692,73.203 L -31.4865,73.3481 L -30.7953,73.4452
 L -30.099,73.4939 L 30.099,73.4939 z
M -0.935303,17.4837 L -2.80136,17.3532 L -4.65376,17.0928 L -6.48351,16.7039 L -8.28165,16.1883 L -10.0394,15.5485
 L -11.7483,14.7877 L -13.4,13.9095 L -14.9864,12.9182 L -16.4997,11.8187 L -17.9327,10.6163 L -19.2783,9.31683
 L -20.53,7.9267 L -21.6817,6.45264 L -22.7277,4.90182 L -23.663,3.28183 L -24.483,1.60054 L -25.1838,-0.13385
 L -25.7618,-1.91292 L -26.2144,-3.72797 L -26.5392,-5.57016 L -26.7347,-7.43051 L -26.8,-9.29999 L -26.7347,-11.1695
 L -26.5392,-13.0298 L -26.2144,-14.872 L -25.7618,-16.6871 L -25.1838,-18.4661 L -24.483,-20.2005 L -23.663,-21.8818
 L -22.7277,-23.5018 L -21.6817,-25.0526 L -20.53,-26.5267 L -19.2783,-27.9168 L -17.9327,-29.2163 L -16.4997,-30.4187
 L -14.9864,-31.5182 L -13.4,-32.5095 L -11.7483,-33.3877 L -10.0394,-34.1485 L -8.28165,-34.7883 L -6.48351,-35.3039
 L -4.65376,-35.6928 L -2.80136,-35.9532 L -0.935303,-36.0837 L 0.935303,-36.0837 L 2.80136,-35.9532 L 4.65376,-35.6928
 L 6.48351,-35.3039 L 8.28165,-34.7883 L 10.0394,-34.1485 L 11.7483,-33.3877 L 13.4,-32.5095 L 14.9864,-31.5182
 L 16.4997,-30.4187 L 17.9327,-29.2163 L 19.2783,-27.9168 L 20.53,-26.5267 L 21.6817,-25.0526 L 22.7277,-23.5018
 L 23.663,-21.8818 L 24.483,-20.2005 L 25.1838,-18.4661 L 25.7618,-16.6871 L 26.2144,-14.872 L 26.5392,-13.0298
 L 26.7347,-11.1695 L 26.8,-9.29999 L 26.7347,-7.43051 L 26.5392,-5.57016 L 26.2144,-3.72797 L 25.7618,-1.91292
 L 25.1838,-0.13385 L 24.483,1.60054 L 23.663,3.28183 L 22.7277,4.90182 L 21.6817,6.45264 L 20.53,7.9267
 L 19.2783,9.31683 L 17.9327,10.6163 L 16.4997,11.8187 L 14.9864,12.9182 L 13.4,13.9095 L 11.7483,14.7877
 L 10.0394,15.5485 L 8.28165,16.1883 L 6.48351,16.7039 L 4.65376,17.0928 L 2.80136,17.3532 L 0.935303,17.4837
 z
" stroke="black" fill="lightgray" stroke-width="0.5"/>
</svg>
