<?xml version="1.0" standalone="no"?>
<!DOCTYPE svg PUBLIC "-//W3C//DTD SVG 1.0//EN" "http://www.w3.org/TR/2001/REC-SVG-20010904/DTD/svg10.dtd">
<svg xmlns:svg="http://www.w3.org/2000/svg" xmlns:xlink="http://www.w3.org/1999/xlink" xmlns="http://www.w3.org/2000/svg" width="610" height="600" viewBox="0 0 610 600">
<title>Celtic or pseudo-Celtic decorative knot to fill square box.  By AnonMoos (public domain)</title>
<defs>
<path id="SquareKnotPOne" d="M486,526
H421.643
C375.055,526,337.287,488.232,337.287,441.643
C337.287,395.055,375.055,357.287,421.643,357.287
L473.096,357.286
C458.038,437.711,387.823,496,306,496
C224.177,496,153.963,437.712,138.904,357.287
L190.357,357.287
C236.945,357.287,274.713,395.055,274.713,441.643
C274.713,488.232,236.945,526,190.357,526
L126,526"/>
<path id="SquareKnotPTwo" d="M486,126
H421.643
C375.055,126,337.287,163.768,337.287,210.357
C337.287,256.945,375.055,294.713,421.643,294.713
L473.096,294.713
C458.037,214.288,387.823,156,306,156
C224.177,156,153.962,214.289,138.904,294.714
L190.357,294.713
C236.945,294.713,274.713,256.945,274.713,210.357
C274.713,163.768,236.945,126,190.357,126
L126,126"/>
</defs>
<rect x="0" y="0" width="610" height="600" stroke="none" fill="rgb(255,255,255)"/>
<g transform="translate(-94,724.5) scale(1.3,-1.3)" stroke-width="42" stroke="rgb(0,0,0)" fill="none">
<use xlink:href="#SquareKnotPOne"/>
<use stroke-width="17.5" stroke="rgb(255,255,255)" xlink:href="#SquareKnotPOne"/>
<use xlink:href="#SquareKnotPTwo"/>
<use stroke-width="17.5" stroke="rgb(255,255,255)" xlink:href="#SquareKnotPTwo"/>
<g stroke-linejoin="round">
<path d="M146,126
H106
L506,526
H466"/>
<path stroke-width="17.5" stroke="rgb(255,255,255)" d="M147,126
H106
L506,526
H465"/>
<path d="M146,526
H106
L506,126
H466"/>
<path stroke-width="17.5" stroke="rgb(255,255,255)" d="M147,526
H106
L506,126
H465"/>
</g>
<path stroke-width="6" stroke="rgb(255,255,255)" d="M496.686,290.297
C498.891,302.07,500,314.022,500,326
C500,337.978,498.891,349.93,496.686,361.703
M115.314,361.704
C113.11,349.93,112,337.978,112,326
C112,314.022,113.109,302.07,115.314,290.297"/>
<path d="M191.829,357.3
C237.265,358.093,273.907,394.735,274.7,440.171
M337.3,211.829
C338.093,257.265,374.735,293.907,420.171,294.7
M451.718,413.556
C437.384,437.412,417.412,457.384,393.556,471.718
M160.282,238.444
C174.616,214.588,194.588,194.616,218.444,180.282
M303.033,495.974
C275.206,495.488,247.924,488.178,223.583,474.685
M308.967,156.026
C336.794,156.512,364.076,163.822,388.417,177.315
M191.829,126.013
C237.265,126.806,273.907,163.448,274.7,208.885
M420.171,525.987
C374.735,525.194,338.093,488.552,337.3,443.115"/>
<path stroke-width="17.5" stroke="rgb(255,255,255)" d="M190.357,357.287
C236.945,357.287,274.713,395.055,274.713,441.643
M337.287,210.357
C337.287,256.945,375.055,294.713,421.643,294.713
M453.224,411
C438.304,436.843,416.843,458.304,391,473.224
M158.776,241
C173.696,215.157,195.157,193.696,221,178.776
M306,496
C276.159,496,246.843,488.145,221,473.224
M306,156
C335.841,156,365.157,163.855,391,178.776
M190.357,126
C236.945,126,274.713,163.768,274.713,210.357
M421.643,526
C375.055,526,337.287,488.232,337.287,441.643"/>
<path stroke-width="12.25" d="M487.717,291.976
C489.025,298.961,489.929,306.015,490.425,313.104
M490.425,338.896
C489.929,345.985,489.025,353.039,487.717,360.024
M124.283,360.024
C122.975,353.04,122.071,345.985,121.575,338.896
M121.575,313.104
C122.071,306.015,122.975,298.961,124.283,291.976"/>
</g>
</svg>
