<?xml version="1.0" encoding="UTF-8" standalone="no"?>
<svg
   viewBox="0 0 1637.8364 781.37938"
   height="781.37939"
   width="1637.8364"
   xml:space="preserve"
   id="svg2"
   version="1.1"
   sodipodi:docname="default_bone.svg"
   inkscape:version="1.3 (0e150ed, 2023-07-21)"
   xmlns:inkscape="http://www.inkscape.org/namespaces/inkscape"
   xmlns:sodipodi="http://sodipodi.sourceforge.net/DTD/sodipodi-0.dtd"
   xmlns="http://www.w3.org/2000/svg"
   xmlns:svg="http://www.w3.org/2000/svg"
   xmlns:rdf="http://www.w3.org/1999/02/22-rdf-syntax-ns#"
   xmlns:cc="http://creativecommons.org/ns#"
   xmlns:dc="http://purl.org/dc/elements/1.1/"><sodipodi:namedview
     id="namedview1"
     pagecolor="#ffffff"
     bordercolor="#666666"
     borderopacity="1.0"
     inkscape:showpageshadow="2"
     inkscape:pageopacity="0.0"
     inkscape:pagecheckerboard="0"
     inkscape:deskcolor="#d1d1d1"
     inkscape:zoom="0.088499997"
     inkscape:cx="813.55935"
     inkscape:cy="-158.1921"
     inkscape:window-width="1312"
     inkscape:window-height="449"
     inkscape:window-x="0"
     inkscape:window-y="25"
     inkscape:window-maximized="0"
     inkscape:current-layer="svg2" /><metadata
     id="metadata8"><rdf:RDF><cc:Work
         rdf:about=""><dc:format>image/svg+xml</dc:format><dc:type
           rdf:resource="http://purl.org/dc/dcmitype/StillImage" /></cc:Work></rdf:RDF></metadata><defs
     id="defs6" /><g
     transform="matrix(1.3333333,0,0,-1.3333333,-1181.0908,1171.2933)"
     id="g10"><g
       transform="scale(0.1)"
       id="g12"><g
         transform="scale(1.84049)"
         id="g14" /><g
         transform="scale(1.31301)"
         id="g18" /><g
         transform="scale(1.2976)"
         id="g22"><path
           id="path24"
           style="fill:#211d1d;fill-opacity:1;fill-rule:nonzero;stroke:none"
           d="m 15760.3,4422.1 c -51,49.33 -51,130.17 0,179.49 242.5,234.66 539.7,565.59 532.7,931.34 -12.9,671.93 -559.4,1220.95 -1231.3,1236.67 -538.8,12.72 -1003.1,-312.73 -1196.2,-778.9 -22.3,-53.72 -74.1,-89.17 -132.2,-89.17 v 0 c -1447.3,-98.79 -2899.6,-98.79 -4346.94,0 v 0 c -58.1,0 -109.89,35.45 -132.16,89.17 -193.13,466.17 -657.37,791.62 -1196.22,778.9 -671.89,-15.72 -1218.39,-564.74 -1231.27,-1236.67 -7.01,-365.75 290.13,-696.68 532.7,-931.34 51.01,-49.32 51.01,-130.16 0,-179.49 -242.57,-234.66 -539.71,-565.58 -532.7,-931.33 12.87,-671.94 559.37,-1220.96 1231.27,-1236.75 538.85,-12.64 1003.09,312.73 1196.22,778.98 22.27,53.63 74.06,89.16 132.16,89.16 v 0 c 1447.34,98.72 2899.64,98.72 4346.94,0 v 0 c 58.1,0 109.9,-35.53 132.2,-89.16 193.1,-466.25 657.4,-791.62 1196.2,-778.98 671.9,15.79 1218.4,564.81 1231.3,1236.75 7,365.75 -290.2,696.67 -532.7,931.33" /></g></g></g></svg>
