<?xml version="1.0" standalone="no"?>
<!DOCTYPE svg PUBLIC "-//W3C//DTD SVG 1.1//EN" "http://www.w3.org/Graphics/SVG/1.1/DTD/svg11.dtd">
<svg width="190mm" height="150mm" viewBox="-95 -75 190 150" xmlns="http://www.w3.org/2000/svg" version="1.1">
<title>OpenSCAD Model</title>
<path d="
M -73.8889,63.76 L -73.8766,63.4462 L -73.8396,63.1343 L -73.7784,62.8262 L -73.6931,62.5239 L -73.5844,62.2293
 L -73.4529,61.944 L -73.2995,61.67 L -73.125,61.4089 L -72.9305,61.1622 L -72.7173,60.9316 L -72.4867,60.7184
 L -72.24,60.5239 L -71.9789,60.3494 L -71.7048,60.196 L -71.4196,60.0645 L -71.125,59.9558 L -70.8227,59.8705
 L -70.5146,59.8092 L -70.2027,59.7723 L -69.8889,59.76 L -56.7778,59.76 L -56.4639,59.7723 L -56.152,59.8092
 L -55.844,59.8705 L -55.5417,59.9558 L -55.247,60.0645 L -54.9618,60.196 L -54.6878,60.3494 L -54.4266,60.5239
 L -54.18,60.7184 L -53.9493,60.9316 L -53.7361,61.1622 L -53.5417,61.4089 L -53.3672,61.67 L -53.2137,61.944
 L -53.0823,62.2293 L -52.9735,62.5239 L -52.8883,62.8262 L -52.827,63.1343 L -52.7901,63.4462 L -52.7778,63.76
 L -52.7778,75 L -31.6667,75 L -31.6667,63.76 L -31.6543,63.4462 L -31.6174,63.1343 L -31.5561,62.8262
 L -31.4709,62.5239 L -31.3622,62.2293 L -31.2307,61.944 L -31.0772,61.67 L -30.9027,61.4089 L -30.7083,61.1622
 L -30.4951,60.9316 L -30.2645,60.7184 L -30.0178,60.5239 L -29.7567,60.3494 L -29.4826,60.196 L -29.1974,60.0645
 L -28.9027,59.9558 L -28.6004,59.8705 L -28.2924,59.8092 L -27.9805,59.7723 L -27.6667,59.76 L -14.5555,59.76
 L -14.2417,59.7723 L -13.9298,59.8092 L -13.6218,59.8705 L -13.3195,59.9558 L -13.0248,60.0645 L -12.7396,60.196
 L -12.4656,60.3494 L -12.2044,60.5239 L -11.9578,60.7184 L -11.7271,60.9316 L -11.5139,61.1622 L -11.3195,61.4089
 L -11.145,61.67 L -10.9915,61.944 L -10.86,62.2293 L -10.7513,62.5239 L -10.6661,62.8262 L -10.6048,63.1343
 L -10.5679,63.4462 L -10.5555,63.76 L -10.5555,75 L 10.5555,75 L 10.5555,63.76 L 10.5679,63.4462
 L 10.6048,63.1343 L 10.6661,62.8262 L 10.7513,62.5239 L 10.86,62.2293 L 10.9915,61.944 L 11.145,61.67
 L 11.3195,61.4089 L 11.5139,61.1622 L 11.7271,60.9316 L 11.9577,60.7184 L 12.2044,60.5239 L 12.4656,60.3494
 L 12.7396,60.196 L 13.0248,60.0645 L 13.3195,59.9558 L 13.6218,59.8705 L 13.9298,59.8092 L 14.2417,59.7723
 L 14.5555,59.76 L 27.6667,59.76 L 27.9805,59.7723 L 28.2924,59.8092 L 28.6004,59.8705 L 28.9027,59.9558
 L 29.1974,60.0645 L 29.4826,60.196 L 29.7567,60.3494 L 30.0178,60.5239 L 30.2645,60.7184 L 30.4951,60.9316
 L 30.7083,61.1622 L 30.9027,61.4089 L 31.0772,61.67 L 31.2307,61.944 L 31.3622,62.2293 L 31.4709,62.5239
 L 31.5561,62.8262 L 31.6174,63.1343 L 31.6543,63.4462 L 31.6667,63.76 L 31.6667,75 L 52.7778,75
 L 52.7778,63.76 L 52.7901,63.4462 L 52.827,63.1343 L 52.8883,62.8262 L 52.9735,62.5239 L 53.0823,62.2293
 L 53.2137,61.944 L 53.3672,61.67 L 53.5417,61.4089 L 53.7361,61.1622 L 53.9493,60.9316 L 54.18,60.7184
 L 54.4266,60.5239 L 54.6878,60.3494 L 54.9618,60.196 L 55.247,60.0645 L 55.5417,59.9558 L 55.844,59.8705
 L 56.152,59.8092 L 56.4639,59.7723 L 56.7778,59.76 L 69.8889,59.76 L 70.2027,59.7723 L 70.5146,59.8092
 L 70.8227,59.8705 L 71.125,59.9558 L 71.4196,60.0645 L 71.7048,60.196 L 71.9789,60.3494 L 72.24,60.5239
 L 72.4867,60.7184 L 72.7173,60.9316 L 72.9305,61.1622 L 73.125,61.4089 L 73.2994,61.67 L 73.4529,61.944
 L 73.5844,62.2293 L 73.6931,62.5239 L 73.7784,62.8262 L 73.8396,63.1343 L 73.8766,63.4462 L 73.8889,63.76
 L 73.8889,75 L 95,75 L 95,-75 L 73.8889,-75 L 73.8889,-63.76 L 73.8766,-63.4462
 L 73.8396,-63.1343 L 73.7784,-62.8262 L 73.6931,-62.5239 L 73.5844,-62.2293 L 73.4529,-61.944 L 73.2994,-61.67
 L 73.125,-61.4089 L 72.9305,-61.1622 L 72.7173,-60.9316 L 72.4867,-60.7184 L 72.24,-60.5239 L 71.9789,-60.3494
 L 71.7048,-60.196 L 71.4196,-60.0645 L 71.125,-59.9558 L 70.8227,-59.8705 L 70.5146,-59.8092 L 70.2027,-59.7723
 L 69.8889,-59.76 L 56.7778,-59.76 L 56.4639,-59.7723 L 56.152,-59.8092 L 55.844,-59.8705 L 55.5417,-59.9558
 L 55.247,-60.0645 L 54.9618,-60.196 L 54.6878,-60.3494 L 54.4266,-60.5239 L 54.18,-60.7184 L 53.9493,-60.9316
 L 53.7361,-61.1622 L 53.5417,-61.4089 L 53.3672,-61.67 L 53.2137,-61.944 L 53.0823,-62.2293 L 52.9735,-62.5239
 L 52.8883,-62.8262 L 52.827,-63.1343 L 52.7901,-63.4462 L 52.7778,-63.76 L 52.7778,-75 L 31.6667,-75
 L 31.6667,-63.76 L 31.6543,-63.4462 L 31.6174,-63.1343 L 31.5561,-62.8262 L 31.4709,-62.5239 L 31.3622,-62.2293
 L 31.2307,-61.944 L 31.0772,-61.67 L 30.9027,-61.4089 L 30.7083,-61.1622 L 30.4951,-60.9316 L 30.2645,-60.7184
 L 30.0178,-60.5239 L 29.7567,-60.3494 L 29.4826,-60.196 L 29.1974,-60.0645 L 28.9027,-59.9558 L 28.6004,-59.8705
 L 28.2924,-59.8092 L 27.9805,-59.7723 L 27.6667,-59.76 L 14.5555,-59.76 L 14.2417,-59.7723 L 13.9298,-59.8092
 L 13.6218,-59.8705 L 13.3195,-59.9558 L 13.0248,-60.0645 L 12.7396,-60.196 L 12.4656,-60.3494 L 12.2044,-60.5239
 L 11.9577,-60.7184 L 11.7271,-60.9316 L 11.5139,-61.1622 L 11.3195,-61.4089 L 11.145,-61.67 L 10.9915,-61.944
 L 10.86,-62.2293 L 10.7513,-62.5239 L 10.6661,-62.8262 L 10.6048,-63.1343 L 10.5679,-63.4462 L 10.5555,-63.76
 L 10.5555,-75 L -10.5555,-75 L -10.5555,-63.76 L -10.5679,-63.4462 L -10.6048,-63.1343 L -10.6661,-62.8262
 L -10.7513,-62.5239 L -10.86,-62.2293 L -10.9915,-61.944 L -11.145,-61.67 L -11.3195,-61.4089 L -11.5139,-61.1622
 L -11.7271,-60.9316 L -11.9578,-60.7184 L -12.2044,-60.5239 L -12.4656,-60.3494 L -12.7396,-60.196 L -13.0248,-60.0645
 L -13.3195,-59.9558 L -13.6218,-59.8705 L -13.9298,-59.8092 L -14.2417,-59.7723 L -14.5555,-59.76 L -27.6667,-59.76
 L -27.9805,-59.7723 L -28.2924,-59.8092 L -28.6004,-59.8705 L -28.9027,-59.9558 L -29.1974,-60.0645 L -29.4826,-60.196
 L -29.7567,-60.3494 L -30.0178,-60.5239 L -30.2645,-60.7184 L -30.4951,-60.9316 L -30.7083,-61.1622 L -30.9027,-61.4089
 L -31.0772,-61.67 L -31.2307,-61.944 L -31.3622,-62.2293 L -31.4709,-62.5239 L -31.5561,-62.8262 L -31.6174,-63.1343
 L -31.6543,-63.4462 L -31.6667,-63.76 L -31.6667,-75 L -52.7778,-75 L -52.7778,-63.76 L -52.7901,-63.4462
 L -52.827,-63.1343 L -52.8883,-62.8262 L -52.9735,-62.5239 L -53.0823,-62.2293 L -53.2137,-61.944 L -53.3672,-61.67
 L -53.5417,-61.4089 L -53.7361,-61.1622 L -53.9493,-60.9316 L -54.18,-60.7184 L -54.4266,-60.5239 L -54.6878,-60.3494
 L -54.9618,-60.196 L -55.247,-60.0645 L -55.5417,-59.9558 L -55.844,-59.8705 L -56.152,-59.8092 L -56.4639,-59.7723
 L -56.7778,-59.76 L -69.8889,-59.76 L -70.2027,-59.7723 L -70.5146,-59.8092 L -70.8227,-59.8705 L -71.125,-59.9558
 L -71.4196,-60.0645 L -71.7048,-60.196 L -71.9789,-60.3494 L -72.24,-60.5239 L -72.4867,-60.7184 L -72.7173,-60.9316
 L -72.9305,-61.1622 L -73.125,-61.4089 L -73.2995,-61.67 L -73.4529,-61.944 L -73.5844,-62.2293 L -73.6931,-62.5239
 L -73.7784,-62.8262 L -73.8396,-63.1343 L -73.8766,-63.4462 L -73.8889,-63.76 L -73.8889,-75 L -95,-75
 L -95,75 L -73.8889,75 z
" stroke="black" fill="lightgray" stroke-width="0.5"/>
</svg>
